<svg xmlns="http://www.w3.org/2000/svg" width="88.822" height="29.87" viewBox="0 0 88.822 29.87">
  <g id="Group_503" data-name="Group 503" transform="translate(-11.792 -198.569)">
    <path id="Path_23" data-name="Path 23" d="M16.62,199.559h3.434l-4.166,19.557H21.5l-.921,3.153H11.792Z" fill="#00918e"/>
    <path id="Path_24" data-name="Path 24" d="M35.679,210.272l-1.407,6.66c-.781,3.744-2.031,5.609-5.74,5.609-3.5,0-5.022-2.139-4.237-5.834l1.5-7.035c.693-3.3,2.21-5.272,5.69-5.272C35.014,204.4,36.422,206.688,35.679,210.272Zm-6.411-.6-1.632,7.649c-.312,1.436.053,2.366,1.241,2.366,1.095,0,1.539-.885,1.859-2.4l1.628-7.595c.279-1.335.2-2.442-1.19-2.442C29.932,207.253,29.568,208.284,29.268,209.672Z" fill="#00918e"/>
    <path id="Path_25" data-name="Path 25" d="M46.2,220.8c-.89,4.2-1.25,7.643-6.244,7.643-4.1,0-4.776-2.359-4.351-4.547l.035-.17h3.468l-.034.2c-.11.631-.162,1.69,1.2,1.69,1.566,0,1.84-1.847,2.336-4.155l.245-1.172a3.187,3.187,0,0,1-2.906,1.621c-3.1,0-3.385-2.871-2.815-5.516l1.366-6.327c.481-2.231,1.359-5.667,4.807-5.667a2.43,2.43,0,0,1,2.639,1.624,9.839,9.839,0,0,1,.472-1.352H49.7c-.264,1.085-.608,2.541-.994,4.4ZM42.022,209.7l-1.389,6.512c-.347,1.639-.22,2.718,1.052,2.718,1.426,0,1.857-1.378,2.345-3.624l1.111-5.174c.309-1.507.353-2.877-1.1-2.877C42.8,207.257,42.336,208.289,42.022,209.7Z" fill="#00918e"/>
    <path id="Path_26" data-name="Path 26" d="M53.285,204.672h3.434l-3.753,17.6H49.531Zm1.308-6.1h3.434l-.8,3.743H53.793Z" fill="#00918e"/>
    <path id="Path_27" data-name="Path 27" d="M66.7,217.925c-.286,1.4-.8,3.762-.869,4.344H62.491c.038-.335.11-.891.212-1.427a3.454,3.454,0,0,1-3.12,1.7c-2.76,0-3.163-2.633-2.588-5.341.893-4.092,2.886-5.162,7.005-5.782.234-.034.442-.068.681-.1l.466-2.136c.267-1.24.163-2.076-.892-2.076-1.037,0-1.292.895-1.592,2.122l-.128.537h-3.4l.064-.289c.476-2.192,1.07-5.074,5.32-5.074,3.531,0,4.636,1.855,4.037,4.713Zm-2.528-3.931-.534.1c-1.812.39-2.718.971-3.184,2.937-.267,1.192-.3,2.5.935,2.5,1.293,0,1.851-1.211,2.363-3.612Z" fill="#00918e"/>
    <path id="Path_28" data-name="Path 28" d="M71.822,210.635c.608-2.921,1.012-4.7,1.216-5.963h3.251a21.639,21.639,0,0,1-.442,2.6,4.351,4.351,0,0,1,4.179-2.869l-.9,4.057c-2.309,0-3.655.953-4.378,4.379l-1.957,9.425H69.353Z" fill="#00918e"/>
    <path id="Path_29" data-name="Path 29" d="M82.615,204.672h1.86l.986-4.249h3.4l-.982,4.249H90.07l-.627,2.943H87.252l-2.368,10.653c-.186.9-.1,1.475.93,1.475a6.572,6.572,0,0,0,1.09-.08l-.567,2.609a9.16,9.16,0,0,1-2.154.26c-2.16,0-3.513-.709-2.857-3.757l2.462-11.16h-1.8Z" fill="#00918e"/>
    <path id="Path_30" data-name="Path 30" d="M93.366,216.769l-.162.728c-.254,1.235-.163,2.31,1.018,2.31.869,0,1.236-.557,1.468-1.519.42-1.743-.149-2.791-1.474-4.078-2.229-2.131-2.8-3.48-2.325-6.018A4.276,4.276,0,0,1,96.44,204.4c3.236,0,4.628,2.038,4.044,4.933l-.135.681H97.127l.137-.816c.242-1.371.059-2.064-.845-2.064-.69,0-1.091.53-1.248,1.468-.152.921-.085,1.558,1.3,2.9,2.543,2.475,3.147,4.033,2.6,6.751-.552,2.758-2.082,4.284-5.009,4.284-3.945,0-4.852-2.437-4.1-5.492l.068-.28Z" fill="#00918e"/>
  </g>
</svg>
